<?xml version="1.0" standalone="no"?>
<!DOCTYPE svg PUBLIC "-//W3C//DTD SVG 20010904//EN"
 "http://www.w3.org/TR/2001/REC-SVG-20010904/DTD/svg10.dtd">
<svg version="1.0" xmlns="http://www.w3.org/2000/svg"
 width="848.000000pt" height="1280.000000pt" viewBox="0 0 848.000000 1280.000000"
 preserveAspectRatio="xMidYMid meet">
<metadata>
Created by potrace 1.15, written by Peter Selinger 2001-2017
</metadata>
<g transform="translate(0.000000,1280.000000) scale(0.100000,-0.100000)"
fill="#000000" stroke="none">
<path d="M3895 12785 c-347 -29 -692 -100 -1010 -209 -1901 -645 -3091 -2531
-2854 -4521 58 -489 193 -940 415 -1384 213 -428 446 -753 777 -1089 424 -430
916 -756 1472 -976 114 -45 139 -59 136 -73 -1 -10 -293 -931 -647 -2047 -354
-1116 -643 -2031 -641 -2032 1 -1 206 47 456 107 l455 110 45 -44 c430 -409
633 -599 637 -594 3 3 39 155 79 339 76 347 194 882 365 1663 55 253 136 622
180 820 43 198 129 587 190 865 60 278 115 526 121 551 l10 46 159 0 159 0 10
-46 c6 -25 61 -273 121 -551 61 -278 147 -667 190 -865 44 -198 125 -567 180
-820 171 -781 289 -1316 365 -1663 40 -184 76 -336 79 -339 4 -5 207 185 637
594 l45 44 455 -110 c250 -60 455 -108 456 -107 2 1 -287 916 -641 2032 -354
1116 -646 2037 -647 2047 -3 14 22 28 136 73 872 345 1602 963 2092 1773 177
291 349 689 442 1021 182 651 209 1316 80 1975 -293 1491 -1362 2711 -2804
3201 -535 182 -1139 256 -1700 209z"/>
</g>
</svg>
